PathFileType	4	(X/Y/Z)	/Users/itak/Documents/Research/Walk-IL/dataset/trc/00040_00004.trc
DataRate	CameraRate	NumFrames	NumMarkers	Units	OrigDataRate	OrigDataStartFrame	OrigNumFrames
100.000000	100.000000	4	54	mm	100.000000	121	487
Frame#	Time	RPSI			LPSI			L3			STRN			T10			C7			CLAV			RBAK			LBAK			LSHO			LUPA			LAEL			LAOL			LWTS			LWPS			LFRA			LIFD			LHPS			LHTS			RSHO			RUPA			RAEL			RAOL			RWTS			RWPS			RFRA			RIFD			RHTS			RHPS			RBHD			LFHD			RFHD			LBHD			LHIP			RHIP			RASI			LASI			LKNE			LTHI			LANK			LTIP			LTOE			LMT1			LMT5			LHEE			RKNE			RTHI			RANK			RTIP			RTOE			RMT1			RMT5			RHEE			*53			
		X1	Y1	Z1	X2	Y2	Z2	X3	Y3	Z3	X4	Y4	Z4	X5	Y5	Z5	X6	Y6	Z6	X7	Y7	Z7	X8	Y8	Z8	X9	Y9	Z9	X10	Y10	Z10	X11	Y11	Z11	X12	Y12	Z12	X13	Y13	Z13	X14	Y14	Z14	X15	Y15	Z15	X16	Y16	Z16	X17	Y17	Z17	X18	Y18	Z18	X19	Y19	Z19	X20	Y20	Z20	X21	Y21	Z21	X22	Y22	Z22	X23	Y23	Z23	X24	Y24	Z24	X25	Y25	Z25	X26	Y26	Z26	X27	Y27	Z27	X28	Y28	Z28	X29	Y29	Z29	X30	Y30	Z30	X31	Y31	Z31	X32	Y32	Z32	X33	Y33	Z33	X34	Y34	Z34	X35	Y35	Z35	X36	Y36	Z36	X37	Y37	Z37	X38	Y38	Z38	X39	Y39	Z39	X40	Y40	Z40	X41	Y41	Z41	X42	Y42	Z42	X43	Y43	Z43	X44	Y44	Z44	X45	Y45	Z45	X46	Y46	Z46	X47	Y47	Z47	X48	Y48	Z48	X49	Y49	Z49	X50	Y50	Z50	X51	Y51	Z51	X52	Y52	Z52	X53	Y53	Z53	X54	Y54	Z54	

122	1.21	-1213.9287109375	1080.378051757812	149.8611450195312	-1218.173950195312	1068.6484375	-14.65008544921875	-1220.933959960938	1129.8330078125	56.40120315551758	-1003.122680664062	1324.317993164062	59.20426559448242	-1249.77294921875	1269.2099609375	47.23504257202148	-1207.071899414062	1537.512573242188	29.43879127502441	-1046.612182617188	1449.614624023438	48.49274444580078	-1258.48828125	1401.510131835938	110.5302124023438	-1216.472412109375	1492.090454101562	-68.70021057128906	-1109.516357421875	1500.93798828125	-136.2395324707031	-1129.676147460938	1370.276611328125	-209.7263946533203	-1118.129272460938	1150.887084960938	-224.8777618408203	-1178.947509765625	1140.697631835938	-138.5730285644531	-1035.4990234375	899.6287841796875	-154.1995239257812	-1107.79931640625	884.8610229492188	-202.2958068847656	-1104.057495117188	1035.06201171875	-225.69091796875	-1015.438354492188	714.6012573242188	-128.0710906982422	-1075.24169921875	794.8197021484375	-196.0443267822266	-1013.557556152344	805.8018798828125	-162.1074523925781	-1142.712768554688	1530.194580078125	210.9853363037109	-1158.60302734375	1460.439697265625	282.79296875	-1183.5693359375	1189.989135742188	308.2823181152344	-1176.488403320312	1161.989624023438	211.9680480957031	-1049.442749023438	931.6990966796875	288.7481384277344	-1117.303588867188	917.4926147460938	349.8173828125	-1170.1328125	1114.559448242188	325.1592407226562	-1030.984619140625	745.8187255859375	278.9932556152344	-1015.972534179688	823.3607788085938	306.7842712402344	-1074.027465820312	818.5042724609375	353.8059997558594	-1161.338012695312	1719.665405273438	-34.95363616943359	-997.6211547851562	1749.193237304688	106.1410446166992	-987.990234375	1749.72412109375	8.143681526184082	-1169.531494140625	1716.769409179688	109.4506225585938	-1123.513916015625	960.1685180664062	-118.9861145019531	-1103.452880859375	963.040283203125	252.1069183349609	-1002.925170898438	995.5108642578125	177.1767730712891	-1007.613891601562	1006.906982421875	-57.51874542236328	-1097.804565429688	515.7251586914062	-53.49209594726562	-1114.709716796875	651.7909545898438	-94.87136840820312	-1203.815551757812	42.45645904541016	-37.0322151184082	-1182.591552734375	286.7552795410156	-64.66164398193359	-988.1957397460938	41.37761688232422	37.7568473815918	-1047.954345703125	49.6155891418457	52.1639289855957	-1079.036376953125	41.38069534301758	-50.25037384033203	-1276.165283203125	50.40177917480469	12.13670253753662	-1108.077026367188	524.4185791015625	201.1942291259766	-1083.72216796875	793.2728881835938	247.3892974853516	-1224.24755859375	47.03362274169922	178.2269439697266	-1135.989868164062	404.71728515625	200.5722351074219	-992.556640625	46.12834548950195	131.7590789794922	-1057.027221679688	50.51221084594727	103.1358337402344	-1074.460815429688	45.07093048095703	197.6690063476562	-1280.62744140625	48.05335235595703	133.4413146972656	nan	nan	nan	
123	1.22	-1213.397827148438	1080.446533203125	149.4136505126953	-1217.731811523438	1068.653686523438	-15.10620594024658	-1220.423828125	1129.923461914062	55.91897964477539	-1002.442687988281	1324.178588867188	58.59227752685547	-1249.120971679688	1269.3330078125	46.69713973999023	-1206.150146484375	1537.53759765625	28.80545616149902	-1045.902221679688	1449.5048828125	47.79994583129883	-1257.6630859375	1401.6611328125	109.9764709472656	-1215.557495117188	1492.104125976562	-69.32537841796875	-1108.678588867188	1500.867431640625	-136.8867492675781	-1128.981811523438	1370.205078125	-210.3691711425781	-1117.633422851562	1150.815795898438	-225.4856872558594	-1178.395751953125	1140.685302734375	-139.1528015136719	-1035.151123046875	899.497802734375	-154.7514801025391	-1107.409912109375	884.7838745117188	-202.8135375976562	-1103.5537109375	1034.9853515625	-226.2375793457031	-1015.105041503906	714.47412109375	-128.6369323730469	-1074.95458984375	794.7318725585938	-196.569580078125	-1013.23583984375	805.6930541992188	-162.6561279296875	-1141.731079101562	1530.272094726562	210.343505859375	-1157.659423828125	1460.5126953125	282.1880187988281	-1182.865600585938	1190.061645507812	307.67236328125	-1175.870971679688	1162.057495117188	211.3506927490234	-1048.938110351562	931.6795654296875	288.038330078125	-1116.733764648438	917.5073852539062	349.1775817871094	-1169.501586914062	1114.627319335938	324.5138549804688	-1030.5009765625	745.772705078125	278.3088684082031	-1015.551879882812	823.3060913085938	306.0981750488281	-1073.620849609375	818.5160522460938	353.1354675292969	-1160.308959960938	1719.457763671875	-35.94956970214844	-997.0870971679688	1749.324462890625	105.7508087158203	-987.150634765625	1749.843627929688	7.804368495941162	-1168.938232421875	1716.610595703125	108.5081939697266	-1123.076538085938	960.0977172851562	-119.4724578857422	-1103.056518554688	963.0028076171875	251.5819854736328	-1002.669067382812	995.3800048828125	176.6977844238281	-1007.534606933594	1006.716857910156	-58.09969711303711	-1097.496704101562	515.6644897460938	-53.70338821411133	-1114.350463867188	651.6963500976562	-95.21593475341797	-1203.80126953125	42.42102432250977	-37.07052993774414	-1182.36474609375	286.6763305664062	-64.83485412597656	-988.225341796875	41.38286209106445	37.79138565063477	-1047.95849609375	49.61662673950195	52.17638778686523	-1079.033813476562	41.38890838623047	-50.22606658935547	-1276.191528320312	50.39469528198242	12.10360336303711	-1107.8857421875	524.4375610351562	200.9500732421875	-1083.34326171875	793.3674926757812	246.9341125488281	-1224.240112304688	47.04436874389648	178.2294769287109	-1135.859008789062	404.6988220214844	200.4015960693359	-992.55224609375	46.12554168701172	131.7580413818359	-1057.022216796875	50.50791168212891	103.1313171386719	-1074.441284179688	45.07572937011719	197.6604309082031	-1280.623291015625	48.06491470336914	133.4408874511719	nan	nan	nan	
124	1.23	-1212.872314453125	1080.510009765625	148.9440765380859	-1217.283081054688	1068.659423828125	-15.57863807678223	-1219.904418945312	1130.01416015625	55.42332458496094	-1001.734252929688	1324.034423828125	57.96773529052734	-1248.44287109375	1269.463989257812	46.15486145019531	-1205.202758789062	1537.566284179688	28.16172409057617	-1045.161376953125	1449.396606445312	47.0989875793457	-1256.8193359375	1401.822021484375	109.4111175537109	-1214.646606445312	1492.149658203125	-69.95596313476562	-1107.81494140625	1500.798950195312	-137.5450134277344	-1128.2587890625	1370.139038085938	-211.0189208984375	-1117.130859375	1150.750122070312	-226.1173400878906	-1177.831298828125	1140.676513671875	-139.7488403320312	-1034.76220703125	899.3742065429688	-155.3443756103516	-1106.987548828125	884.7105712890625	-203.3489532470703	-1103.045166015625	1034.92041015625	-226.8097991943359	-1014.674499511719	714.3779907226562	-129.2079162597656	-1074.602905273438	794.64306640625	-197.1055145263672	-1012.846008300781	805.58740234375	-163.2168273925781	-1140.696044921875	1530.328247070312	209.6933746337891	-1156.661865234375	1460.594970703125	281.5772705078125	-1182.121215820312	1190.141723632812	307.0594787597656	-1175.239624023438	1162.134521484375	210.7147369384766	-1048.421997070312	931.6685791015625	287.3195190429688	-1116.156372070312	917.5224609375	348.5146789550781	-1168.857666015625	1114.6982421875	323.8482360839844	-1030.036987304688	745.7301635742188	277.5909118652344	-1015.067138671875	823.2548828125	305.3751220703125	-1073.212158203125	818.5249633789062	352.4134826660156	-1159.249145507812	1719.234008789062	-36.95854568481445	-996.5263671875	1749.454711914062	105.3543472290039	-986.2840576171875	1749.983764648438	7.460269927978516	-1168.324584960938	1716.43603515625	107.5445022583008	-1122.655029296875	960.0272827148438	-119.9918670654297	-1102.654541015625	962.9572143554688	251.0292053222656	-1002.332458496094	995.2763061523438	176.2002563476562	-1007.383911132812	1006.529846191406	-58.69412231445312	-1097.11669921875	515.6035766601562	-53.90919494628906	-1113.939208984375	651.596923828125	-95.57582092285156	-1203.781127929688	42.38280868530273	-37.10822677612305	-1182.075927734375	286.5841369628906	-65.01409912109375	-988.259765625	41.38843536376953	37.83242416381836	-1047.961181640625	49.61804580688477	52.1927604675293	-1079.030151367188	41.40063858032227	-50.19665145874023	-1276.219970703125	50.38761520385742	12.0700511932373	-1107.69189453125	524.470947265625	200.7130279541016	-1082.972290039062	793.4603271484375	246.4696960449219	-1224.234252929688	47.05623626708984	178.2303009033203	-1135.712768554688	404.6844482421875	200.2256774902344	-992.548828125	46.12227630615234	131.7567901611328	-1057.012817382812	50.50710296630859	103.1265335083008	-1074.41943359375	45.08168029785156	197.6510162353516	-1280.614990234375	48.07468032836914	133.4416351318359	nan	nan	nan	
125	1.24	-1212.355712890625	1080.56884765625	148.4468688964844	-1216.827758789062	1068.66455078125	-16.07234573364258	-1219.376953125	1130.1025390625	54.91033935546875	-1000.991821289062	1323.885009765625	57.3248291015625	-1247.7431640625	1269.599243164062	45.60465240478516	-1204.23046875	1537.60205078125	27.5074520111084	-1044.37939453125	1449.28271484375	46.39340972900391	-1255.96240234375	1401.989135742188	108.8299102783203	-1213.737670898438	1492.216552734375	-70.59531402587891	-1106.924926757812	1500.7314453125	-138.2139129638672	-1127.511840820312	1370.077392578125	-211.6765441894531	-1116.615478515625	1150.68994140625	-226.7682495117188	-1177.255981445312	1140.6708984375	-140.3610076904297	-1034.334228515625	899.2633666992188	-155.9706420898438	-1106.540405273438	884.6415405273438	-203.9048156738281	-1102.540771484375	1034.866333007812	-227.4100341796875	-1014.164123535156	714.3065795898438	-129.7712097167969	-1074.199462890625	794.5548095703125	-197.6565399169922	-1012.404052734375	805.4860229492188	-163.7876434326172	-1139.618896484375	1530.36181640625	209.0324554443359	-1155.619995117188	1460.683227539062	280.9569091796875	-1181.339599609375	1190.22802734375	306.4428405761719	-1174.5986328125	1162.218627929688	210.05810546875	-1047.893310546875	931.6612548828125	286.5902709960938	-1115.567138671875	917.537353515625	347.8303833007812	-1168.196044921875	1114.76953125	323.1676330566406	-1029.582763671875	745.7021484375	276.8319091796875	-1014.51953125	823.2125244140625	304.615234375	-1072.788818359375	818.5281982421875	351.6470947265625	-1158.157470703125	1718.999633789062	-37.97602844238281	-995.9387817382812	1749.581665039062	104.9504547119141	-985.3883056640625	1750.1396484375	7.108372688293457	-1167.687744140625	1716.246826171875	106.559684753418	-1122.246826171875	959.95703125	-120.5461807250977	-1102.24169921875	962.9033203125	250.450927734375	-1001.910827636719	995.1903686523438	175.6848907470703	-1007.142456054688	1006.352478027344	-59.29391098022461	-1096.664184570312	515.5382690429688	-54.11130142211914	-1113.4755859375	651.4923095703125	-95.94961547851562	-1203.753295898438	42.33981323242188	-37.1451416015625	-1181.723754882812	286.4764709472656	-65.20009613037109	-988.2996826171875	41.39451217651367	37.88097763061523	-1047.96240234375	49.62029266357422	52.2135009765625	-1079.025390625	41.41572570800781	-50.16161727905273	-1276.251831054688	50.37925720214844	12.03320503234863	-1107.48779296875	524.5149536132812	200.4815216064453	-1082.608520507812	793.542236328125	246.0010070800781	-1224.230590820312	47.06917572021484	178.2285308837891	-1135.548706054688	404.6753540039062	200.0388946533203	-992.5475463867188	46.11893844604492	131.7552185058594	-1056.998779296875	50.51079177856445	103.1218566894531	-1074.3955078125	45.08866119384766	197.6395568847656	-1280.600708007812	48.08108139038086	133.4434661865234	nan	nan	nan	
